{
  "accessors": [
    {
      "bufferView": 2,
      "componentType": 5126,
      "count": 784,
      "max": [
        -0.7062535285949707,
        0.17037081718444824,
        1.6061755418777466
      ],
      "min": [
        -1.0441105365753174,
        -0.021177349612116814,
        0.65159094333648682
      ],
      "type": "VEC3"
    },
    {
      "bufferView": 2,
      "byteOffset": 9408,
      "componentType": 5126,
      "count": 784,
      "max": [
        1,
        0.99844348430633545,
        1
      ],
      "min": [
        -0.99755525588989258,
        -0.99773383140563965,
        -1
      ],
      "type": "VEC3"
    },
    {
      "bufferView": 3,
      "componentType": 5126,
      "count": 784,
      "max": [
        0.43529412150382996,
        0.61960786581039429,
        0.30980393290519714,
        1
      ],
      "min": [
        0.43529412150382996,
        0.61960786581039429,
        0.30980393290519714,
        1
      ],
      "type": "VEC4"
    },
    {
      "bufferView": 1,
      "componentType": 5126,
      "count": 784,
      "max": [
        1,
        1
      ],
      "min": [
        0,
        0
      ],
      "type": "VEC2"
    },
    {
      "bufferView": 0,
      "componentType": 5125,
      "count": 2820,
      "max": [
        783
      ],
      "min": [
        0
      ],
      "type": "SCALAR"
    },
    {
      "bufferView": 2,
      "byteOffset": 18816,
      "componentType": 5126,
      "count": 648,
      "max": [
        -1.0640836954116821,
        0.11107902228832245,
        1.4831355810165405
      ],
      "min": [
        -1.4202214479446411,
        -0.016095230355858803,
        0.65665930509567261
      ],
      "type": "VEC3"
    },
    {
      "bufferView": 2,
      "byteOffset": 26592,
      "componentType": 5126,
      "count": 648,
      "max": [
        0.99639594554901123,
        0.99898427724838257,
        1
      ],
      "min": [
        -0.99964451789855957,
        -0.99997866153717041,
        -1
      ],
      "type": "VEC3"
    },
    {
      "bufferView": 3,
      "byteOffset": 12544,
      "componentType": 5126,
      "count": 648,
      "max": [
        0.43529412150382996,
        0.61960786581039429,
        0.30980393290519714,
        1
      ],
      "min": [
        0.43529412150382996,
        0.61960786581039429,
        0.30980393290519714,
        1
      ],
      "type": "VEC4"
    },
    {
      "bufferView": 1,
      "byteOffset": 6272,
      "componentType": 5126,
      "count": 648,
      "max": [
        1,
        1
      ],
      "min": [
        0,
        0
      ],
      "type": "VEC2"
    },
    {
      "bufferView": 0,
      "byteOffset": 11280,
      "componentType": 5125,
      "count": 2844,
      "max": [
        647
      ],
      "min": [
        0
      ],
      "type": "SCALAR"
    },
    {
      "bufferView": 2,
      "byteOffset": 34368,
      "componentType": 5126,
      "count": 648,
      "max": [
        -0.90584325790405273,
        0.059447009116411209,
        1.8314573764801025
      ],
      "min": [
        -1.2163705825805664,
        -0.069984376430511475,
        0.65611898899078369
      ],
      "type": "VEC3"
    },
    {
      "bufferView": 2,
      "byteOffset": 42144,
      "componentType": 5126,
      "count": 648,
      "max": [
        0.99986064434051514,
        0.99941259622573853,
        1
      ],
      "min": [
        -0.99964761734008789,
        -0.99995690584182739,
        -1
      ],
      "type": "VEC3"
    },
    {
      "bufferView": 3,
      "byteOffset": 22912,
      "componentType": 5126,
      "count": 648,
      "max": [
        0.43529412150382996,
        0.61960786581039429,
        0.30980393290519714,
        1
      ],
      "min": [
        0.43529412150382996,
        0.61960786581039429,
        0.30980393290519714,
        1
      ],
      "type": "VEC4"
    },
    {
      "bufferView": 1,
      "byteOffset": 11456,
      "componentType": 5126,
      "count": 648,
      "max": [
        1,
        1
      ],
      "min": [
        0,
        0
      ],
      "type": "VEC2"
    },
    {
      "bufferView": 0,
      "byteOffset": 22656,
      "componentType": 5125,
      "count": 2844,
      "max": [
        647
      ],
      "min": [
        0
      ],
      "type": "SCALAR"
    },
    {
      "bufferView": 2,
      "byteOffset": 49920,
      "componentType": 5126,
      "count": 14974,
      "max": [
        1.1265631914138794,
        0.33998900651931763,
        3.2238278388977051
      ],
      "min": [
        -1.1265677213668823,
        -0.10032814741134644,
        2.1057596206665039
      ],
      "type": "VEC3"
    },
    {
      "bufferView": 2,
      "byteOffset": 229608,
      "componentType": 5126,
      "count": 14974,
      "max": [
        0.99977576732635498,
        0.99997973442077637,
        0.99691629409790039
      ],
      "min": [
        -0.99925267696380615,
        -0.99996209144592285,
        -0.99621337652206421
      ],
      "type": "VEC3"
    },
    {
      "bufferView": 3,
      "byteOffset": 33280,
      "componentType": 5126,
      "count": 14974,
      "max": [
        0.89411765336990356,
        0.85490196943283081,
        0.83529412746429443,
        1
      ],
      "min": [
        0.21568627655506134,
        0.20392157137393951,
        0.19215686619281769,
        1
      ],
      "type": "VEC4"
    },
    {
      "bufferView": 0,
      "byteOffset": 34032,
      "componentType": 5125,
      "count": 89820,
      "max": [
        14973
      ],
      "min": [
        0
      ],
      "type": "SCALAR"
    },
    {
      "bufferView": 2,
      "byteOffset": 409296,
      "componentType": 5126,
      "count": 4880,
      "max": [
        0.7378547191619873,
        -0.39939886331558228,
        2.3386874198913574
      ],
      "min": [
        -0.73785495758056641,
        -0.84969842433929443,
        1.9614135026931763
      ],
      "type": "VEC3"
    },
    {
      "bufferView": 2,
      "byteOffset": 467856,
      "componentType": 5126,
      "count": 4880,
      "max": [
        0.97393089532852173,
        0.97579807043075562,
        0.99950754642486572
      ],
      "min": [
        -0.97471296787261963,
        -0.97135204076766968,
        -0.9970969557762146
      ],
      "type": "VEC3"
    },
    {
      "bufferView": 3,
      "byteOffset": 272864,
      "componentType": 5126,
      "count": 4880,
      "max": [
        0.54901963472366333,
        0.69019609689712524,
        0.40784314274787903,
        1
      ],
      "min": [
        0.54901963472366333,
        0.68627452850341797,
        0.40784314274787903,
        1
      ],
      "type": "VEC4"
    },
    {
      "bufferView": 0,
      "byteOffset": 393312,
      "componentType": 5125,
      "count": 23904,
      "max": [
        4879
      ],
      "min": [
        0
      ],
      "type": "SCALAR"
    },
    {
      "bufferView": 2,
      "byteOffset": 526416,
      "componentType": 5126,
      "count": 31622,
      "max": [
        0.85580098628997803,
        0.85580086708068848,
        2.9179294109344482
      ],
      "min": [
        -0.85580074787139893,
        -0.85527324676513672,
        1.4537117481231689
      ],
      "type": "VEC3"
    },
    {
      "bufferView": 2,
      "byteOffset": 905880,
      "componentType": 5126,
      "count": 31622,
      "max": [
        0.9999699592590332,
        0.99997037649154663,
        1
      ],
      "min": [
        -0.99997043609619141,
        -0.99999755620956421,
        -0.99999970197677612
      ],
      "type": "VEC3"
    },
    {
      "bufferView": 3,
      "byteOffset": 350944,
      "componentType": 5126,
      "count": 31622,
      "max": [
        0.89803922176361084,
        0.88627451658248901,
        0.86666667461395264,
        1
      ],
      "min": [
        0.12549020349979401,
        0.12156862765550613,
        0.11764705926179886,
        1
      ],
      "type": "VEC4"
    },
    {
      "bufferView": 0,
      "byteOffset": 488928,
      "componentType": 5125,
      "count": 189720,
      "max": [
        31621
      ],
      "min": [
        0
      ],
      "type": "SCALAR"
    },
    {
      "bufferView": 2,
      "byteOffset": 1285344,
      "componentType": 5126,
      "count": 12292,
      "max": [
        0.33819782733917236,
        -0.27099090814590454,
        1.1627180576324463
      ],
      "min": [
        -0.33819779753684998,
        -0.56425774097442627,
        0.73875856399536133
      ],
      "type": "VEC3"
    },
    {
      "bufferView": 2,
      "byteOffset": 1432848,
      "componentType": 5126,
      "count": 12292,
      "max": [
        0.99997514486312866,
        0.99981451034545898,
        0.99833846092224121
      ],
      "min": [
        -0.99997514486312866,
        -0.99975323677062988,
        -0.99970084428787231
      ],
      "type": "VEC3"
    },
    {
      "bufferView": 3,
      "byteOffset": 856896,
      "componentType": 5126,
      "count": 12292,
      "max": [
        0.89411765336990356,
        0.88235294818878174,
        0.86274510622024536,
        1
      ],
      "min": [
        0.21176470816135406,
        0.20392157137393951,
        0.18823529779911041,
        1
      ],
      "type": "VEC4"
    },
    {
      "bufferView": 0,
      "byteOffset": 1247808,
      "componentType": 5125,
      "count": 73728,
      "max": [
        12291
      ],
      "min": [
        0
      ],
      "type": "SCALAR"
    },
    {
      "bufferView": 2,
      "byteOffset": 1580352,
      "componentType": 5126,
      "count": 3574,
      "max": [
        0.9381636381149292,
        0.62576907873153687,
        1.5845005512237549
      ],
      "min": [
        -0.10622207075357437,
        0.33278375864028931,
        0.84170520305633545
      ],
      "type": "VEC3"
    },
    {
      "bufferView": 2,
      "byteOffset": 1623240,
      "componentType": 5126,
      "count": 3574,
      "max": [
        0.99974209070205688,
        0.99967461824417114,
        0.99775367975234985
      ],
      "min": [
        -0.99915659427642822,
        -0.99983841180801392,
        -0.99621737003326416
      ],
      "type": "VEC3"
    },
    {
      "bufferView": 3,
      "byteOffset": 1053568,
      "componentType": 5126,
      "count": 3574,
      "max": [
        0.89019608497619629,
        0.87843137979507446,
        0.85882353782653809,
        1
      ],
      "min": [
        0.21568627655506134,
        0.20392157137393951,
        0.19215686619281769,
        1
      ],
      "type": "VEC4"
    },
    {
      "bufferView": 0,
      "byteOffset": 1542720,
      "componentType": 5125,
      "count": 21432,
      "max": [
        3573
      ],
      "min": [
        0
      ],
      "type": "SCALAR"
    },
    {
      "bufferView": 2,
      "byteOffset": 1666128,
      "componentType": 5126,
      "count": 10920,
      "max": [
        0.57971984148025513,
        0.49569022655487061,
        1.6943624019622803
      ],
      "min": [
        -0.57973295450210571,
        -0.49569368362426758,
        0.72941255569458008
      ],
      "type": "VEC3"
    },
    {
      "bufferView": 2,
      "byteOffset": 1797168,
      "componentType": 5126,
      "count": 10920,
      "max": [
        0.99967211484909058,
        0.99979680776596069,
        0.99994206428527832
      ],
      "min": [
        -0.99968457221984863,
        -0.99982845783233643,
        -0.9999614953994751
      ],
      "type": "VEC3"
    },
    {
      "bufferView": 3,
      "byteOffset": 1110752,
      "componentType": 5126,
      "count": 10920,
      "max": [
        0.89411765336990356,
        0.88235294818878174,
        0.86274510622024536,
        1
      ],
      "min": [
        0.21568627655506134,
        0.20392157137393951,
        0.19215686619281769,
        1
      ],
      "type": "VEC4"
    },
    {
      "bufferView": 0,
      "byteOffset": 1628448,
      "componentType": 5125,
      "count": 65508,
      "max": [
        10919
      ],
      "min": [
        0
      ],
      "type": "SCALAR"
    }
  ],
  "asset": {
    "extras": {
      "author": "Belyta (https://sketchfab.com/Belyta)",
      "license": "CC-BY-4.0 (http://creativecommons.org/licenses/by/4.0/)",
      "source": "https://sketchfab.com/3d-models/cute-cat-assignment-efe9f196e1d74c5c923b50182b5fd8d0",
      "title": "Cute Cat Assignment"
    },
    "generator": "Sketchfab-8.47.0",
    "version": "2.0"
  },
  "bufferViews": [
    {
      "buffer": 0,
      "byteLength": 1890480,
      "byteOffset": 0,
      "name": "floatBufferViews",
      "target": 34963
    },
    {
      "buffer": 0,
      "byteLength": 16640,
      "byteOffset": 1890480,
      "byteStride": 8,
      "name": "floatBufferViews",
      "target": 34962
    },
    {
      "buffer": 0,
      "byteLength": 1928208,
      "byteOffset": 1907120,
      "byteStride": 12,
      "name": "floatBufferViews",
      "target": 34962
    },
    {
      "buffer": 0,
      "byteLength": 1285472,
      "byteOffset": 3835328,
      "byteStride": 16,
      "name": "floatBufferViews",
      "target": 34962
    }
  ],
  "buffers": [
    {
      "byteLength": 5120800,
      "uri": "scene.bin"
    }
  ],
  "materials": [
    {
      "doubleSided": true,
      "name": "material_0",
      "pbrMetallicRoughness": {
        "baseColorFactor": [
          1,
          1,
          1,
          1
        ],
        "metallicFactor": 0,
        "roughnessFactor": 0.82253342575196542
      }
    },
    {
      "doubleSided": true,
      "name": "material_1",
      "pbrMetallicRoughness": {
        "baseColorFactor": [
          1,
          1,
          1,
          1
        ],
        "metallicFactor": 0,
        "roughnessFactor": 0.85901446473195564
      }
    },
    {
      "doubleSided": true,
      "name": "material_2",
      "pbrMetallicRoughness": {
        "baseColorFactor": [
          1,
          1,
          1,
          1
        ],
        "metallicFactor": 0,
        "roughnessFactor": 0.78605238677197531
      }
    },
    {
      "doubleSided": true,
      "name": "material_3",
      "pbrMetallicRoughness": {
        "baseColorFactor": [
          1,
          1,
          1,
          1
        ],
        "metallicFactor": 0,
        "roughnessFactor": 0.83469377207862883
      }
    },
    {
      "doubleSided": true,
      "name": "material_4",
      "pbrMetallicRoughness": {
        "baseColorFactor": [
          1,
          1,
          1,
          1
        ],
        "metallicFactor": 0,
        "roughnessFactor": 0.59999999999999998
      }
    },
    {
      "doubleSided": true,
      "name": "material_5",
      "pbrMetallicRoughness": {
        "baseColorFactor": [
          1,
          1,
          1,
          1
        ],
        "metallicFactor": 0,
        "roughnessFactor": 0.81037307942530201
      }
    },
    {
      "doubleSided": true,
      "emissiveFactor": [
        0,
        0,
        0
      ],
      "name": "defaultMat",
      "pbrMetallicRoughness": {
        "baseColorFactor": [
          0.80000000000000004,
          0.80000000000000004,
          0.80000000000000004,
          1
        ],
        "metallicFactor": 0,
        "roughnessFactor": 1
      }
    },
    {
      "doubleSided": true,
      "emissiveFactor": [
        0,
        0,
        0
      ],
      "name": "defaultMat_0",
      "pbrMetallicRoughness": {
        "baseColorFactor": [
          0.80000000000000004,
          0.80000000000000004,
          0.80000000000000004,
          1
        ],
        "metallicFactor": 0,
        "roughnessFactor": 1
      }
    },
    {
      "doubleSided": true,
      "emissiveFactor": [
        0,
        0,
        0
      ],
      "name": "defaultMat_1",
      "pbrMetallicRoughness": {
        "baseColorFactor": [
          0.80000000000000004,
          0.80000000000000004,
          0.80000000000000004,
          1
        ],
        "metallicFactor": 0,
        "roughnessFactor": 1
      }
    }
  ],
  "meshes": [
    {
      "primitives": [
        {
          "attributes": {
            "COLOR_0": 2,
            "NORMAL": 1,
            "POSITION": 0,
            "TEXCOORD_0": 3
          },
          "indices": 4,
          "material": 8,
          "mode": 4
        }
      ]
    },
    {
      "primitives": [
        {
          "attributes": {
            "COLOR_0": 7,
            "NORMAL": 6,
            "POSITION": 5,
            "TEXCOORD_0": 8
          },
          "indices": 9,
          "material": 7,
          "mode": 4
        }
      ]
    },
    {
      "primitives": [
        {
          "attributes": {
            "COLOR_0": 12,
            "NORMAL": 11,
            "POSITION": 10,
            "TEXCOORD_0": 13
          },
          "indices": 14,
          "material": 6,
          "mode": 4
        }
      ]
    },
    {
      "primitives": [
        {
          "attributes": {
            "COLOR_0": 17,
            "NORMAL": 16,
            "POSITION": 15
          },
          "indices": 18,
          "material": 5,
          "mode": 4
        }
      ]
    },
    {
      "primitives": [
        {
          "attributes": {
            "COLOR_0": 21,
            "NORMAL": 20,
            "POSITION": 19
          },
          "indices": 22,
          "material": 4,
          "mode": 4
        }
      ]
    },
    {
      "primitives": [
        {
          "attributes": {
            "COLOR_0": 25,
            "NORMAL": 24,
            "POSITION": 23
          },
          "indices": 26,
          "material": 3,
          "mode": 4
        }
      ]
    },
    {
      "primitives": [
        {
          "attributes": {
            "COLOR_0": 29,
            "NORMAL": 28,
            "POSITION": 27
          },
          "indices": 30,
          "material": 2,
          "mode": 4
        }
      ]
    },
    {
      "primitives": [
        {
          "attributes": {
            "COLOR_0": 33,
            "NORMAL": 32,
            "POSITION": 31
          },
          "indices": 34,
          "material": 1,
          "mode": 4
        }
      ]
    },
    {
      "primitives": [
        {
          "attributes": {
            "COLOR_0": 37,
            "NORMAL": 36,
            "POSITION": 35
          },
          "indices": 38,
          "material": 0,
          "mode": 4
        }
      ]
    }
  ],
  "nodes": [
    {
      "children": [
        1
      ],
      "name": "RootNode (gltf orientation matrix)",
      "rotation": [
        -0.70710678118654746,
        -0,
        -0,
        0.70710678118654757
      ]
    },
    {
      "children": [
        2
      ],
      "name": "RootNode (model correction matrix)"
    },
    {
      "children": [
        3,
        5,
        7,
        9,
        11,
        13,
        15,
        17,
        19
      ],
      "name": "zbrush_concat.osgb.cleaner.materialmerger.gles"
    },
    {
      "children": [
        4
      ],
      "name": "/sketchfab-data/processing/models/1aa956a8970e4a55b7f0851e9bcfd5bb/efe9f196e1d74c5c923b50182b5fd8d0/62a50907a1fe4529b080155281a27f11/preprocess/SubTool-8-8546568.OBJ"
    },
    {
      "mesh": 0,
      "name": ""
    },
    {
      "children": [
        6
      ],
      "name": "/sketchfab-data/processing/models/1aa956a8970e4a55b7f0851e9bcfd5bb/efe9f196e1d74c5c923b50182b5fd8d0/62a50907a1fe4529b080155281a27f11/preprocess/SubTool-7-8546568.OBJ"
    },
    {
      "mesh": 1,
      "name": ""
    },
    {
      "children": [
        8
      ],
      "name": "/sketchfab-data/processing/models/1aa956a8970e4a55b7f0851e9bcfd5bb/efe9f196e1d74c5c923b50182b5fd8d0/62a50907a1fe4529b080155281a27f11/preprocess/SubTool-6-8546568.OBJ"
    },
    {
      "mesh": 2,
      "name": ""
    },
    {
      "children": [
        10
      ],
      "name": "/sketchfab-data/processing/models/1aa956a8970e4a55b7f0851e9bcfd5bb/efe9f196e1d74c5c923b50182b5fd8d0/62a50907a1fe4529b080155281a27f11/preprocess/SubTool-5-35290.OBJ"
    },
    {
      "mesh": 3,
      "name": ""
    },
    {
      "children": [
        12
      ],
      "name": "/sketchfab-data/processing/models/1aa956a8970e4a55b7f0851e9bcfd5bb/efe9f196e1d74c5c923b50182b5fd8d0/62a50907a1fe4529b080155281a27f11/preprocess/SubTool-4-5065891.OBJ"
    },
    {
      "mesh": 4,
      "name": ""
    },
    {
      "children": [
        14
      ],
      "name": "/sketchfab-data/processing/models/1aa956a8970e4a55b7f0851e9bcfd5bb/efe9f196e1d74c5c923b50182b5fd8d0/62a50907a1fe4529b080155281a27f11/preprocess/SubTool-3-35290.OBJ"
    },
    {
      "mesh": 5,
      "name": ""
    },
    {
      "children": [
        16
      ],
      "name": "/sketchfab-data/processing/models/1aa956a8970e4a55b7f0851e9bcfd5bb/efe9f196e1d74c5c923b50182b5fd8d0/62a50907a1fe4529b080155281a27f11/preprocess/SubTool-2-6958416.OBJ"
    },
    {
      "mesh": 6,
      "name": ""
    },
    {
      "children": [
        18
      ],
      "name": "/sketchfab-data/processing/models/1aa956a8970e4a55b7f0851e9bcfd5bb/efe9f196e1d74c5c923b50182b5fd8d0/62a50907a1fe4529b080155281a27f11/preprocess/SubTool-1-6958416.OBJ"
    },
    {
      "mesh": 7,
      "name": ""
    },
    {
      "children": [
        20
      ],
      "name": "/sketchfab-data/processing/models/1aa956a8970e4a55b7f0851e9bcfd5bb/efe9f196e1d74c5c923b50182b5fd8d0/62a50907a1fe4529b080155281a27f11/preprocess/SubTool-0-6958416.OBJ"
    },
    {
      "mesh": 8,
      "name": ""
    }
  ],
  "scene": 0,
  "scenes": [
    {
      "name": "OSG_Scene",
      "nodes": [
        0
      ]
    }
  ]
}

